<svg version="1.1" id="레이어_1" xmlns="http://www.w3.org/2000/svg" x="0" y="0" viewBox="0 0 459.6 50.9" style="enable-background:new 0 0 459.6 50.9" xml:space="preserve"><style>.st0{fill:#ce983c}.st3{fill:#561908}.st5{fill:#fff}.st6{fill:#302d2c}.st7{fill:#767676}.st10{fill:#a1460f}</style><g id="그룹_7765" transform="translate(13299.001 21961)"><g id="그룹_33" transform="translate(-13470.223 -22255.531)"><g id="그룹_27" transform="translate(171.222 294.531)"><g id="그룹_24"><path id="패스_1" class="st0" d="M25.5 0C16 0 7.3 5.2 2.9 13.6c14-2.6 28.1-4 42.3-4.2C40.4 3.5 33.1 0 25.5 0z"/><path id="패스_2" d="M45.2 9.4C31 9.6 16.9 11 2.9 13.6c-3.1 6-3.8 13-1.8 19.4 15.8-6.4 32.3-10.9 49.1-13.2-.8-3.8-2.5-7.4-5-10.4z" style="fill:#c96100"/><path id="패스_3" d="M25.5 50.9C39.6 50.9 51 39.5 51 25.4c0-1.9-.2-3.8-.6-5.6-17 2.3-33.5 6.8-49.3 13.2 3.4 10.7 13.2 17.9 24.4 17.9z" style="fill:#a34e00"/></g><g id="그룹_25" transform="translate(17.566 5.352)"><path id="사각형_10" class="st3" d="M5.9 0h13.9v2.7H5.9z"/><path id="패스_4" class="st3" d="M23.9 36.7c.1-5.9-.7-11.8-2.5-17.5-1-3-1.6-6.1-1.9-9.2-.3-2.1-.4-4.3-.4-6.5H6.6c0 2.2-.1 4.3-.4 6.5-.3 3.1-1 6.2-1.9 9.2-1.8 5.6-2.7 11.5-2.5 17.5H0v2.2h25v-2.2h-1.1z"/><path id="사각형_11" style="fill:#210000" d="M12.5 14.5h4.6v4.6h-4.6z"/></g><g id="그룹_26" transform="translate(1.979 12.515)"><path id="패스_5" class="st5" d="m28.6 27.5-7.7-2-.7-7.9-6.8-5.1-4-7.9-8.3-3.2.2-.4 8.6 3.2v.1l4 8 6.9 5.1.6 7.8 7.1 1.9 4.1-6.1.4.2-4.4 6.3z"/><path id="패스_6" class="st5" d="M13.7 13.6c-.7 0-1.2-.5-1.2-1.2s.5-1.2 1.2-1.2 1.2.5 1.2 1.2c0 .6-.5 1.2-1.2 1.2z"/><path id="패스_7" class="st5" d="M20.6 18.7c-.7 0-1.2-.5-1.2-1.2s.5-1.2 1.2-1.2 1.2.5 1.2 1.2c-.1.6-.6 1.2-1.2 1.2z"/><path id="패스_8" class="st5" d="M21.2 26.5c-.7 0-1.2-.5-1.2-1.2s.5-1.2 1.2-1.2 1.2.5 1.2 1.2c0 .6-.5 1.2-1.2 1.2z"/><path id="패스_9" class="st5" d="M28.6 28.5c-.7 0-1.2-.5-1.2-1.2s.5-1.2 1.2-1.2 1.2.5 1.2 1.2c-.1.6-.6 1.2-1.2 1.2z"/><path id="패스_10" class="st5" d="M32.7 22.3c-.7 0-1.2-.5-1.2-1.2s.5-1.2 1.2-1.2 1.2.5 1.2 1.2c0 .6-.5 1.2-1.2 1.2z"/><path id="패스_11" class="st5" d="M9.7 6.2c-1 0-1.8-.7-1.8-1.7s.7-1.8 1.7-1.8 1.8.7 1.8 1.7c.1.9-.7 1.7-1.7 1.8z"/><path id="패스_12" class="st5" d="M1.2 2.4C.6 2.4 0 1.9 0 1.2 0 .6.5 0 1.2 0s1.2.5 1.2 1.2c0 .6-.5 1.2-1.2 1.2z"/></g></g><g id="그룹_32" transform="translate(229.59 307.758)"><g id="그룹_30"><g id="그룹_28" transform="translate(27.906)"><path id="패스_13" class="st6" d="M45.4 8.2h12.1c.5 0 .9-.5.9-1V1H44.6v6.3c0 .5.4.9.8.9zm10-5V6h-7.8V3.2h7.8z"/><path id="패스_14" class="st6" d="M15.5 11.9h1.8c.5 0 .9-.5.9-1V.6h-3v2.3h-4.6V2.3c.1-.6-.3-1.1-.9-1.1H1v2.2h6.6C7.3 6.6 2.4 9.2 0 9.8l.6 1.8c2.8-.6 7.9-2.3 9.5-6.5h5V7H9.5v2.2h5.6v2.4c-1.2-.5-2.4-.8-3.7-.7-3.8 0-6.8 2.1-6.8 4.9s3 4.9 6.8 4.9 6.8-2.1 6.8-4.9c0-1.7-1.1-3.3-2.7-3.9zm-4.1 6.6c-2.6 0-3.9-1.5-3.9-2.7s1.3-2.7 3.9-2.7 3.9 1.5 3.9 2.7-1.2 2.7-3.9 2.7z"/><path id="패스_15" class="st6" d="m21.1 8.3.9 1.8c3-.4 5.9-1.5 8.5-3.1 2.8.3 5.4 1.5 7.5 3.3l1.7-2.4c-2.3-1.4-4.9-2.2-7.6-2.4.8-.9 1.2-2.1 1.2-3.3V2c0-1-1.1-1-1.1-1H22.1v2H30c-.4 2.8-6.2 4.8-8.9 5.3z"/><path id="패스_16" class="st6" d="M83.4 9.7V7.5h-3.5V.6h-3v13.2h-6.2v-1.7c2.1-.4 3.6-2.2 3.7-4.2 0-1.4-.7-2.6-1.9-3.4h2.8V2.2h-4.6V.4c-.1-.4-1-.4-1-.4h-2.2v2.2h-4.8v2.2h3c-1.1.8-1.8 2-1.9 3.4.1 2.1 1.6 3.8 3.7 4.2v1.7h-5.1v2.2h14.4V20H79c.5 0 .9-.5.9-1V9.7h3.5zm-16.7-2c-.3-1.3.6-2.7 1.9-2.9 1.3-.3 2.7.6 2.9 1.9.3 1.3-.5 2.7-1.9 2.9-.2 0-.3.1-.5.1-1.2.2-2.3-.7-2.4-1.9v-.1z"/><path id="패스_17" class="st6" d="M41.8 12.1h8.7V16h2.2s.9-.1.9-.7v-3.2h7.8V9.9H41.8v2.2z"/><path id="패스_18" class="st6" d="M20.5 13.9h8.4v6.2H31s.9-.1.9-.7v-5.5H40v-2.2H20.5v2.2z"/><path id="패스_19" class="st6" d="M47.6 13.7h-3V19c0 .7.9.8.9.8H59v-2.2H47.6v-3.9z"/><path id="패스_20" class="st6" d="M124.3 6.6h-3.4V.7h-3v13.9h2.2c.5 0 .9-.5.9-1V8.8h3.4l-.1-2.2z"/><path id="패스_21" class="st6" d="M114.9 11.2V8.9l-7.7.3V4h7.2V1.8h-10.3v8.7c0 .5.4.9.9 1h2.2l7.7-.3z"/><path id="패스_22" class="st6" d="M109.8 13.6h-3V19c0 .7.9.8.9.8h13.2v-2.2h-11v-4z"/><path id="패스_23" class="st6" d="M98.6 7.9h-1.5V.6h-3v19.6h2.2c.5 0 .9-.5.9-1v-9.1h1.5v10h2.2c.5 0 .9-.5.9-1V.6h-3l-.2 7.3z"/><path id="패스_24" class="st6" d="M89.7 10.8c1.3-2.3 1.9-5 1.8-7.6v-.4c.1-.6-.3-1.1-.9-1.1H84v2.2h4.6C89 8.1 86.8 12 83 14l1 1.9c1.9-.8 3.6-2.1 4.8-3.8 1.4.9 2.4 2.3 3 3.9h.1l1.8-1.8c.3-.3 0-.6 0-.6-1-1.3-2.4-2.3-4-2.8z"/></g><g id="그룹_29" transform="translate(0 1.379)"><path id="패스_25" class="st6" d="M18.5 7.9h-3V.4H14V19h1.1s.4-.1.4-.9V9.4h3V19h1.1s.4-.1.4-.9V.4h-1.5v7.5z"/><path id="패스_26" class="st6" d="m23 0-.9.4c0 .1 3.1 7.3 0 19.4l.9.2c3.3-12.4.1-19.7 0-20z"/><path id="패스_27" class="st6" d="M2.4.4 1.5 0c-.1.3-3.3 7.6 0 20l.9-.2C-.8 7.7 2.3.5 2.4.4z"/><path id="패스_28" class="st6" d="M8.1 8.5C9 6.1 9.6 3.6 9.8 1.1H4.1v1.5h4C7.7 5.2 6.5 10.5 3 14l1.1 1c1.5-1.5 2.6-3.3 3.5-5.2 1.6 1.3 2.9 2.8 4 4.5l1.3-.7c-1.3-1.9-2.9-3.7-4.8-5.1z"/></g></g><g id="그룹_31" transform="translate(1.25 23.904)"><path id="패스_29" class="st7" d="M4.8 5.8c-.6.2-1.2.3-1.8.3-.8 0-1.6-.2-2.2-.8C.3 4.8 0 4 0 3.3 0 1.7 1.2.4 2.8.4h.3c.5 0 1 .1 1.5.3l-.2.7c-.4-.1-.8-.2-1.3-.2-1-.1-1.9.7-2 1.7v.3c-.1 1 .6 1.9 1.7 2h.3c.3 0 .5 0 .8-.1V3.7h-1v-.8h2l-.1 2.9z"/><path id="패스_30" class="st7" d="M6.3 2 7 4.2c.1.3.2.6.2.8.1-.2.1-.5.2-.8L8.2 2h1.1l-1 2.8c-.3.9-.8 1.8-1.5 2.5-.3.3-.6.5-1 .6L5.5 7c.5-.1 1-.5 1.2-.9 0-.1.1-.1.1-.2s0-.1-.1-.2L5.2 2h1.1z"/><path id="패스_31" class="st7" d="M10.4 4.3c0 .6.5 1.1 1.1 1.1h.1c.4 0 .8-.1 1.1-.2l.2.7c-.4.1-.9.2-1.4.2-1.1.1-2-.7-2.1-1.7v-.3c-.1-1.2.7-2.1 1.9-2.2h.2c1 0 1.8.8 1.8 1.8V4.3h-2.9zm1.8-.7c.1-.5-.3-.9-.7-1h-.1c-.5 0-.9.5-.9 1h1.7z"/><path id="패스_32" class="st7" d="M17.8 4c.1 1.1-.8 2-1.9 2.1h-.2c-1.1 0-2-.8-2-1.9V4c-.1-1.1.7-2.1 1.8-2.2h.3c1.1 0 2 .8 2 1.9V4zm-3.1 0c0 .8.4 1.4 1 1.4s1-.6 1-1.4c0-.6-.3-1.4-1-1.4s-1 .7-1 1.4z"/><path id="패스_33" class="st7" d="M18.5 3.2V2h.9v.6c.3-.4.8-.7 1.3-.7.7 0 1.4.5 1.4 1.7V6h-1V3.7c0-.6-.2-1-.8-1-.4 0-.7.3-.8.6V6h-1V3.2z"/><path id="패스_34" class="st7" d="M26.9 2v3.5c.2 1.1-.5 2.1-1.5 2.3-.2 0-.4.1-.6 0-.5 0-1-.1-1.4-.3l.2-.8c.3.2.7.3 1.1.3.6.1 1.1-.4 1.2-1v-.6c-.3.4-.7.6-1.2.6-1 0-1.8-.9-1.7-1.9V4c-.1-1.1.7-2 1.7-2.1h.1c.5 0 .9.2 1.2.6V2h.9zm-1 1.6v-.3c-.1-.4-.4-.7-.8-.7-.6 0-1 .5-1 1.3 0 .7.4 1.3 1 1.3.4 0 .7-.3.8-.6v-1z"/><path id="패스_35" class="st7" d="M27 7c.3 0 .6-.1.8-.3.2-.2.3-.5.3-1.4V2h1v3.6c.1.6-.1 1.3-.5 1.7-.4.3-.9.5-1.4.5L27 7zM29.1.8c0 .3-.2.5-.5.6-.3 0-.5-.2-.6-.5 0-.3.2-.6.5-.6h.1c.3-.1.5.2.5.5z"/><path id="패스_36" class="st7" d="M33.7 4.8V6h-.9v-.6c-.3.5-.8.7-1.3.7-.7 0-1.4-.4-1.4-1.8V2h1v2.2c0 .7.2 1.1.8 1.1.3 0 .7-.2.8-.6 0-.1.1-.2.1-.3V2h1l-.1 2.8z"/><path id="패스_37" class="st7" d="M36.4.4h3.2v.8h-2.2v1.6h2.1v.8h-2.1V6h-1V.4z"/><path id="패스_38" class="st7" d="M44.2 4c.1 1.1-.8 2.1-1.9 2.2h-.2c-1.1 0-2-.8-2-1.9v-.2C40 3 40.8 2 42 1.9h.2c1.1 0 2 .8 2 1.9V4zm-3.1 0c0 .8.4 1.4 1 1.4s1-.6 1-1.4c0-.6-.3-1.4-1-1.4s-1 .7-1 1.4z"/><path id="패스_39" class="st7" d="M48.6 4.8V6h-.9v-.6c-.3.5-.8.7-1.3.7-.7 0-1.4-.4-1.4-1.8V2h1v2.2c0 .7.2 1.1.8 1.1.3 0 .7-.2.8-.6 0-.1.1-.2.1-.3V2h1l-.1 2.8z"/><path id="패스_40" class="st7" d="M49.6 3.2V2h.9v.6c.3-.4.8-.7 1.3-.7.7 0 1.4.5 1.4 1.7V6h-1V3.7c0-.6-.2-1-.8-1-.4 0-.7.3-.8.6V6h-1V3.2z"/><path id="패스_41" class="st7" d="M58.1.1V6h-.9v-.6c-.3.5-.8.8-1.3.7-1-.1-1.8-.9-1.7-2V4c-.1-1.1.6-2 1.7-2.2h.1c.4 0 .9.2 1.1.5V.1h1zM57 3.6v-.3c-.1-.4-.5-.7-.9-.7-.7 0-1 .6-1 1.3 0 .7.4 1.3 1 1.3.4 0 .8-.3.9-.7V3.6z"/><path id="패스_42" class="st7" d="m61.4 6-.1-.5c-.3.4-.7.6-1.2.5-.7 0-1.2-.5-1.3-1.1v-.1c0-1 .9-1.5 2.4-1.5 0-.3-.1-.7-.8-.7-.4 0-.8.1-1.1.3l-.2-.7c.4-.2 1-.4 1.5-.4.8-.1 1.6.5 1.7 1.3V5c0 .3 0 .7.1 1h-1zm-.2-2c-.7 0-1.4.1-1.4.8 0 .3.2.6.5.6h.1c.4 0 .7-.2.8-.6V4z"/><path id="패스_43" class="st7" d="M64.4.8V2h1v.8h-1v1.8c0 .5.1.8.5.8h.4v.8c-.2.1-.5.1-.7.1-.3 0-.6-.1-.9-.3-.2-.3-.4-.7-.3-1.1V2.7h-.6V2h.6V1l1-.2z"/><path id="패스_44" class="st7" d="M67.1.8c0 .3-.2.6-.6.6-.3 0-.6-.2-.6-.6 0-.3.2-.6.6-.6.3 0 .6.3.6.6zM66 6V2h1v4h-1z"/><path id="패스_45" class="st7" d="M72 4c0 1.1-.8 2-1.9 2.1h-.2c-1.1 0-2-.8-2-1.9V4c-.1-1.1.7-2.1 1.9-2.2h.2c1.1 0 2 .8 2 1.9V4zm-3.1 0c0 .8.4 1.4 1 1.4s1-.6 1-1.4c0-.6-.3-1.4-1-1.4s-1 .7-1 1.4z"/><path id="패스_46" class="st7" d="M72.7 3.2V2h.9v.6c.3-.4.8-.7 1.3-.7.7 0 1.4.5 1.4 1.7V6h-1V3.7c0-.6-.2-1-.8-1-.4 0-.7.2-.8.6V6h-1V3.2z"/><path id="패스_47" class="st7" d="M79.2 6V2.7h-.6V2h.6v-.2c0-.5.1-1 .5-1.4.2-.3.6-.4 1-.4.2 0 .4 0 .7.1l-.1.8c-.1-.1-.3-.1-.4-.1-.5 0-.7.4-.7.9V2h.9v.8h-.9V6h-1z"/><path id="패스_48" class="st7" d="M85.4 4c.1 1.1-.8 2.1-1.9 2.2h-.2c-1.1 0-2-.8-2-1.9v-.2C81.2 3 82 2 83.2 1.9h.2c1.1 0 2 .8 2 1.9V4zm-3.1 0c0 .8.4 1.4 1 1.4s1-.6 1-1.4c0-.6-.3-1.4-1-1.4s-1 .7-1 1.4z"/><path id="패스_49" class="st7" d="M86.2 3.3V2h.8v.8c.1-.5.6-.8 1.1-.9h.2v1H88c-.5 0-.9.3-.9.8V6h-1l.1-2.7z"/><path id="패스_50" class="st7" d="M91.9 4.4 91.4 6h-1.1L92.1.4h1.3L95.3 6h-1.1l-.5-1.6h-1.8zm1.6-.8L93 2.3c-.1-.3-.2-.7-.3-1.1-.1.3-.2.7-.3 1.1L92 3.6h1.5z"/><path id="패스_51" class="st7" d="M95.9 3.3V2h.9v.8c.1-.5.6-.8 1.1-.9h.2v1h-.3c-.5 0-.9.3-.9.8V6h-1V3.3z"/><path id="패스_52" class="st7" d="M100.1.8V2h1v.8h-1v1.8c0 .5.1.8.5.8h.4v.8c-.2.1-.5.1-.7.1-.3 0-.6-.1-.9-.3-.2-.3-.4-.7-.3-1.1V2.7h-.6V2h.6V1l1-.2z"/><path id="패스_53" class="st7" d="M101.7 5.1c.3.2.7.3 1 .3.5 0 .7-.2.7-.5s-.2-.4-.7-.6c-.8-.3-1.1-.7-1.1-1.2 0-.8.7-1.3 1.4-1.3h.1c.4 0 .7.1 1.1.2l-.2.7c-.3-.1-.6-.2-.9-.2-.4 0-.6.2-.6.4s.2.4.7.6c.7.3 1.1.6 1.1 1.2 0 .7-.6 1.3-1.7 1.3-.4 0-.9-.1-1.2-.3l.3-.6z"/><path id="패스_54" class="st7" d="m109.1 6-.1-.5c-.3.4-.7.6-1.2.5-.7 0-1.2-.5-1.3-1.1v-.1c0-1 .9-1.5 2.4-1.5 0-.3-.1-.7-.8-.7-.4 0-.8.1-1.1.3l-.2-.7c.4-.2 1-.4 1.5-.4.8-.1 1.6.5 1.7 1.3V5c0 .3 0 .7.1 1h-1zm-.1-2c-.7 0-1.4.1-1.4.8 0 .3.2.6.5.6h.1c.4 0 .7-.2.8-.6V4z"/><path id="패스_55" class="st7" d="M111 3.2V2h.9v.6c.3-.4.8-.7 1.3-.7.7 0 1.4.5 1.4 1.7V6h-1V3.7c0-.6-.2-1-.8-1-.4 0-.7.2-.8.6V6h-1V3.2z"/><path id="패스_56" class="st7" d="M119.4.1V6h-.9v-.6c-.3.5-.8.8-1.3.7-1-.1-1.8-.9-1.7-2V4c-.1-1.1.6-2 1.7-2.2h.1c.4 0 .9.2 1.1.5V.1h1zm-1 3.5v-.3c-.1-.4-.5-.7-.9-.7-.7 0-1 .6-1 1.3 0 .7.4 1.3 1 1.3.4 0 .8-.3.9-.7V3.6z"/><path id="패스_57" class="st7" d="M126.2 5.9c-.5.2-1 .3-1.5.2-1.5.1-2.7-1-2.9-2.4v-.4c-.1-1.6 1.1-2.9 2.7-3h.3c.5 0 .9.1 1.4.2l-.2.9c-.3-.1-.7-.2-1.1-.2-1-.1-1.9.7-2 1.8v.3c-.1 1 .6 1.9 1.7 2h.3c.4 0 .8-.1 1.1-.2l.2.8z"/><path id="패스_58" class="st7" d="M130.4 4.8V6h-.9v-.6c-.3.5-.8.7-1.3.7-.7 0-1.4-.4-1.4-1.8V2h1v2.2c0 .7.2 1.1.8 1.1.3 0 .7-.2.8-.6 0-.1.1-.2.1-.3V2h1l-.1 2.8z"/><path id="패스_59" class="st7" d="M131.5.1h1V6h-1V.1z"/><path id="패스_60" class="st7" d="M134.7.8V2h1v.8h-1v1.8c0 .5.1.8.5.8h.4v.8c-.2.1-.5.1-.7.1-.3 0-.6-.1-.9-.3-.2-.3-.4-.7-.3-1.1V2.7h-.6V2h.6V1l1-.2z"/><path id="패스_61" class="st7" d="M140 4.8V6h-.9v-.6c-.3.5-.8.7-1.3.7-.7 0-1.4-.4-1.4-1.8V2h1v2.2c0 .7.2 1.1.8 1.1.3 0 .7-.2.8-.6 0-.1.1-.2.1-.3V2h1v2.8z"/><path id="패스_62" class="st7" d="M141 3.3V2h.9v.8c.1-.5.6-.8 1.1-.9h.2v1h-.3c-.5 0-.9.3-.9.8V6h-1V3.3z"/><path id="패스_63" class="st7" d="M144.6 4.3c0 .6.5 1.1 1.1 1.1h.1c.4 0 .8-.1 1.1-.2l.2.7c-.5.2-.9.3-1.4.2-1.1.1-2-.7-2.1-1.7v-.3c-.1-1.1.7-2.1 1.8-2.2h.2c1 0 1.8.8 1.8 1.8V4.3h-2.8zm1.8-.7c.1-.5-.3-.9-.7-1h-.1c-.5 0-.9.5-.9 1h1.7z"/></g></g></g><g id="그룹_7764" transform="translate(0 -1)"><g id="그룹_42" transform="translate(-12967.802 -21949.477)"><g id="그룹_34" transform="translate(4.325 24.607)"><path id="패스_64" class="st7" d="M6.9.7 6.8 2c-.6-.3-1.4-.4-2.1-.4-.8 0-1.6.3-2.2.8-1 1.2-1 2.9 0 4 .5.6 1.3.9 2 .8.4 0 .7 0 1.1-.1v-2H3.9V3.8h3.3V8c-.9.3-1.8.5-2.7.5-1.2.1-2.3-.3-3.3-1-.8-.7-1.3-1.8-1.2-3-.1-1.2.4-2.3 1.2-3.1C2.1.6 3.3.2 4.5.3c.8 0 1.7.1 2.4.4z"/><path id="패스_65" class="st7" d="m9.8 2.5 1.5 4.3 1.5-4.3h1.6l-2.3 5.8c-.2.6-.5 1.2-.8 1.8-.4.5-1 .8-1.7.8-.4 0-.8-.1-1.1-.2l.1-1.1c.3.1.5.1.8.1.3 0 .5-.1.7-.3.2-.2.3-.5.3-.8L8.1 2.5h1.7z"/><path id="패스_66" class="st7" d="M20.2 6.8V8c-.6.3-1.4.5-2.1.5-.9.1-1.7-.2-2.3-.8-.6-.6-.9-1.4-.8-2.2 0-.8.2-1.6.7-2.2 1.2-1.2 3.1-1.2 4.3 0l.1.1c.5.8.7 1.6.6 2.5h-4.2c0 .4.2.8.5 1.1.3.3.8.4 1.2.4.7 0 1.4-.2 2-.6zm-3.7-1.9h2.7c-.1-.9-.5-1.4-1.3-1.4-.7-.1-1.3.5-1.4 1.2v.2z"/><path id="패스_67" class="st7" d="M21.5 5.5c0-.9.3-1.7.9-2.3.6-.6 1.4-.9 2.2-.8.8 0 1.7.3 2.3.8.6.6.9 1.4.9 2.3 0 .8-.3 1.6-.8 2.1-1.3 1.2-3.3 1.2-4.7 0-.5-.6-.8-1.3-.8-2.1zm1.7-.2c0 1.4.5 2 1.5 2s1.5-.7 1.5-2c0-.4-.1-.9-.4-1.2-.3-.4-.7-.6-1.2-.5-.4 0-.9.2-1.1.5-.2.3-.3.8-.3 1.2z"/><path id="패스_68" class="st7" d="M29.1 8.4V2.5h1.5v.8c.5-.6 1.2-1 2-.9.6 0 1.2.2 1.6.6.4.5.5 1.1.5 1.6v3.7h-1.6v-3c0-.4 0-.7-.1-1.1-.1-.4-.5-.6-.9-.6-.5 0-.9.2-1.1.7-.2.4-.3.8-.3 1.2v2.8l-1.6.1z"/><path id="패스_69" class="st7" d="M40.4 2.5h1.5v5.3c0 2-1.1 3.1-3.2 3.1-.7 0-1.4-.1-2.1-.4l.1-1.3c.5.3 1.1.5 1.8.5.6.1 1.2-.2 1.6-.8.2-.5.3-1 .3-1.5-.2.3-.4.5-.7.6-.4.2-.8.3-1.2.3-.7 0-1.5-.3-1.9-.9-.8-1.3-.8-2.9 0-4.1.4-.6 1.2-1 2-1 .7 0 1.5.3 1.9.9l-.1-.7zM39 7.2c.4 0 .8-.2 1.1-.5.4-.8.4-1.7 0-2.5-.2-.3-.6-.5-1-.5-.5 0-.9.2-1.1.6-.2.4-.3.8-.3 1.2 0 .4.1.8.3 1.2.2.3.6.5 1 .5z"/><path id="패스_70" class="st7" d="m42.6 10.8.1-1.1c.4 0 .7-.1.8-.3.1-.3.2-.5.1-.8V2.5h1.6v6.3c0 1.4-.6 2.1-1.8 2.1-.3 0-.6 0-.8-.1zm1-9.3V0h1.6v1.5h-1.6z"/><path id="패스_71" class="st7" d="M52.4 2.5v5.8h-1.5v-.7c-.5.6-1.2.9-2 .9-.6 0-1.2-.2-1.6-.7-.4-.5-.5-1-.5-1.6V2.5h1.6v3.1c0 .4 0 .7.1 1.1.1.4.5.6.9.6.5 0 .9-.3 1.1-.7.2-.4.3-.8.3-1.3V2.5h1.6z"/><path id="패스_72" class="st7" d="M56.2 8.4 59.4.5h1.9l3.2 7.9h-1.8L62 6.6h-3.3L58 8.4h-1.8zm5.3-3.1L60.3 2l-1.2 3.3h2.4z"/><path id="패스_73" class="st7" d="M65.4 8.4V2.5h1.4v1.3c.1-.4.2-.7.5-.9.3-.3.7-.5 1.2-.5h.5V4c-.2-.1-.5-.1-.7-.1-.5 0-1 .3-1.1.9-.1.5-.2 1-.2 1.5v2.1h-1.6z"/><path id="패스_74" class="st7" d="M70.5 6.6v-3h-1.2V2.5h1.2V1.4l1.6-.5v1.7h1.4v1.1h-1.4v2.7c0 .6.2 1 .7 1 .3 0 .5 0 .7-.2v1.2c-.4.1-.8.1-1.2.1-.5 0-1-.1-1.4-.5-.2-.4-.4-.9-.4-1.4z"/><path id="패스_75" class="st7" d="m78.3 2.6-.1 1.1c-.5-.2-.9-.2-1.4-.3-.6 0-.9.2-.9.6 0 .2.2.4.7.6.4.2.9.4 1.3.6.5.3.7.8.7 1.4 0 .6-.3 1.2-.8 1.5-.5.3-1.1.5-1.8.4-.6 0-1.2-.1-1.8-.2l.2-1.3c.5.2 1 .4 1.6.4.2 0 .5 0 .7-.1.2-.1.4-.3.4-.6s-.2-.5-.7-.7c-.8-.3-1.2-.4-1.3-.5-.5-.3-.7-.8-.7-1.3 0-.6.3-1.1.7-1.4.5-.3 1.1-.4 1.7-.4.4 0 .9.1 1.5.2z"/><path id="패스_76" class="st7" d="m87.8 6.9.1 1.3c-.6.1-1.2.2-1.9.2-1.2.1-2.3-.3-3.3-1-.9-.7-1.3-1.8-1.3-3-.1-1.2.4-2.3 1.2-3.1.9-.8 2.1-1.2 3.3-1.1.6 0 1.3.1 1.9.3L87.7 2c-.6-.3-1.2-.4-1.8-.4-.8 0-1.5.3-2 .8-.5.6-.8 1.3-.8 2s.2 1.5.8 2c.5.5 1.3.8 2 .8.7.1 1.3 0 1.9-.3z"/><path id="패스_77" class="st7" d="M93.8 6.8V8c-.6.3-1.4.5-2.1.5-.9.1-1.7-.2-2.3-.8-.6-.6-.9-1.4-.8-2.2 0-.8.2-1.6.7-2.2 1.2-1.2 3.1-1.2 4.3 0l.1.1c.5.8.7 1.6.6 2.5H90c0 .4.2.8.5 1.1.3.3.8.4 1.2.4.8 0 1.5-.2 2.1-.6zM90 4.9h2.7c-.1-.9-.5-1.4-1.3-1.4-.7-.1-1.3.5-1.4 1.2v.2z"/><path id="패스_78" class="st7" d="M95.5 8.4V2.5H97v.8c.5-.6 1.2-1 2-.9.6 0 1.2.2 1.6.6.4.5.5 1.1.5 1.6v3.7h-1.6v-3c0-.4 0-.7-.1-1.1-.1-.4-.5-.6-.9-.6-.5 0-.9.2-1.1.7-.2.4-.3.8-.3 1.2v2.8l-1.6.1z"/><path id="패스_79" class="st7" d="M103.2 6.6v-3H102V2.5h1.2V1.4l1.6-.5v1.7h1.4v1.1h-1.4v2.7c0 .6.2 1 .7 1 .3 0 .5 0 .7-.2v1.2c-.4.1-.8.1-1.2.1-.5 0-1-.1-1.4-.5-.2-.4-.4-.9-.4-1.4z"/><path id="패스_80" class="st7" d="M112.2 6.8V8c-.6.3-1.4.5-2.1.5-.9.1-1.7-.2-2.3-.8-.6-.6-.9-1.4-.8-2.2 0-.8.2-1.6.7-2.2 1.2-1.2 3.1-1.2 4.3 0l.1.1c.5.8.7 1.6.6 2.5h-4.2c0 .4.2.8.5 1.1.3.3.8.4 1.2.4.7 0 1.4-.2 2-.6zm-3.8-1.9h2.7c-.1-.9-.5-1.4-1.3-1.4-.7-.1-1.3.5-1.4 1.2v.2z"/><path id="패스_81" class="st7" d="M113.9 8.4V2.5h1.4v1.3c.1-.4.2-.7.5-.9.3-.3.7-.5 1.2-.5h.5V4c-.2-.1-.5-.1-.7-.1-.5 0-1 .3-1.1.9-.1.5-.2 1-.2 1.5v2.1h-1.6z"/></g><g id="그룹_41"><g id="그룹_35" transform="translate(91.911 .815)"><path id="패스_82" class="st6" d="M13.6 13h1.9c.5-.1.8-.4.8-.9V0h-2.7v4.4H9.8v2.1h3.8V13z"/><path id="패스_83" class="st6" d="M6.5 16.1v-3.8H3.8v5.2c0 .7.8.8.8.8h11.8v-2.1l-9.9-.1z"/><path id="패스_84" class="st6" d="M5.9 8.3c1.4 1 2.5 2.5 3 4.2l1.9-2.2c-1-1.5-2.4-2.6-4-3.2.8-1.6 1.2-3.4 1.1-5.2V1.6c0-.5-.3-.9-.8-1H.8v1.9h4.5c.3 3.3-2 6.4-5.3 6.8L.9 11c1.9-.3 3.7-1.3 5-2.7z"/></g><g id="그룹_36" transform="translate(110.412 .872)"><path id="패스_85" class="st6" d="M9.8 6.2H2.7V2.9h6.7V.8H0v6.6c0 .5.3.8.8.9h9V6.2z"/><path id="패스_86" class="st6" d="M18 4.6h-3V0h-2.7v10.3c-1-.5-2.2-.8-3.3-.8-3.4 0-6 2-6 4.6s2.6 4.6 6 4.6 6-2 6-4.6c0-1.4-.8-2.8-2.1-3.5h1.3c.5-.1.8-.4.8-.9v-3h3V4.6zM8.9 16.5c-2.3 0-3.7-1.2-3.7-2.4s1.4-2.4 3.7-2.4 3.7 1.2 3.7 2.4-1.3 2.4-3.7 2.4z"/></g><path id="패스_87" class="st6" d="M13.9 11.3h1.6c.5-.1.8-.4.8-.9V.7h-2.7v2.2H9.4v-.6c0-1.1-.9-1.1-.9-1.1H1.1v2.1h5.7c-.2 3.1-4.7 5.5-6.8 6L.7 11c2.4-.6 7.1-2.2 8.4-6.2h4.5v1.7h-5v2h5v2.7c-1-.5-2.1-.7-3.2-.7-3.4 0-6 2-6 4.6s2.6 4.6 6 4.6 6-2 6-4.6c-.1-1.6-1.1-3.1-2.5-3.8zm-3.6 6.4c-2.3 0-3.7-1.5-3.7-2.6s1.4-2.6 3.7-2.6S14 14 14 15.1s-1.4 2.6-3.7 2.6z"/><g id="그룹_37" transform="translate(17.999 1.043)"><path id="패스_88" class="st6" d="m.6 6.9.8 1.7c2.7-.4 5.2-1.4 7.5-2.9 2.5.3 4.8 1.4 6.6 3.1L17 6.5c-2-1.3-4.3-2.1-6.7-2.3.7-.9 1.1-2 1.1-3.1V.9c0-.5-.4-.9-1-.9H1.5v1.9h7c-.4 2.6-5.6 4.5-7.9 5z"/><path id="패스_89" class="st6" d="M17.2 10.3H0v2h7.3v6.1h1.9s.8-.1.8-.7v-5.4h7.3l-.1-2z"/></g><g id="그룹_38" transform="translate(36.584 .71)"><path id="패스_90" class="st6" d="M13.9 0v18.5h1.9c.5-.1.8-.4.8-.9V0h-2.7z"/><path id="패스_91" class="st6" d="M9.9 3.2H7.4C6.7 1.5 5.5.4 4.1.4 1.8.4 0 3.3 0 7.2S1.8 14 4.1 14c1.5 0 2.7-1.2 3.4-3h2.4v7.4h1.8c.5-.1.8-.4.8-.9V0H9.9v3.2zm-5.8 8.9c-.6 0-1.7-2.2-1.7-4.9s1.1-4.9 1.7-4.9 1.7 2.2 1.7 4.9-1.1 4.9-1.7 4.9zM8 9c.2-1.2.2-2.4 0-3.6h1.9V9H8z"/></g><g id="그룹_39" transform="translate(54.818)"><path id="패스_92" class="st6" d="M17.2 9.3V7.1H0v2.1h7.3v1.3H1.6v2.1h11v1.1H1.8v4.4c0 .7.8.8.8.8h13.1v-2.1H4.4v-1h10.9v-4.6c0-.7-.8-.8-.8-.8H10V9.3h7.2z"/><path id="패스_93" class="st6" d="M8.4 3.6c2.3.4 4.4 1.5 6.2 3l1.3-1.9c.3-.3-.2-.6-.2-.6-1.7-1-3.7-1.7-5.7-2 .1-.1.1-.2.2-.2.1-.2.1-.4 0-.5L8.3 0C6.9 2.7 2 3.9.4 4.1l.4 1.8c2.7-.1 5.3-.9 7.6-2.3z"/></g><g id="그룹_40" transform="translate(73.84 .974)"><path id="패스_94" class="st6" d="M14.5 17V0h-1.4v17.9h1s.4-.1.4-.9z"/><path id="사각형_40" class="st6" d="M0 12.5h13.4v1.4H0z"/><path id="패스_95" class="st6" d="M.4 5.5c-.3 2.6 1.6 5 4.3 5.3 2.6.3 5-1.6 5.3-4.3.3-2.6-1.6-5-4.3-5.3h-.5C2.7 1.1.6 3 .4 5.5zm1.4 1c-.4-1.9.9-3.7 2.8-4 1.9-.4 3.7.9 4 2.8.4 1.9-.9 3.7-2.8 4-.2 0-.4.1-.6.1-1.7.1-3.2-1.2-3.4-2.9z"/></g></g></g><g id="그룹_44" transform="translate(-13067.927 -21953.047)"><path id="패스_96" d="m17 31.8-.1 4h71.2v-4H17z" style="fill:#5d180e"/><g id="그룹_43" transform="translate(4.434)"><path id="패스_97" class="st0" d="M0 .7v1.7C36.4.1 65.1 16.5 65.1 16.5c7-2.7 14.6-3.7 22-2.7.1-.1.1-.3.2-.4C44.2-3 6.9-.1 0 .7z"/><path id="패스_98" d="m9.4 22.4 3.8.1-1.6-13.8H7.3s-2.2 7.6 2.1 13.7z" style="fill:#e44126"/><path id="패스_99" class="st0" d="M7.3 3.9v2.4s11.9-1.6 41.1 6.2l.3-.3C35.5 6.9 21.5 4.1 7.3 3.9z"/><path id="패스_100" class="st10" d="m77.9 21.9.5 8.1H42l-.2-11.4 35.1 2.2c.5.1 1 .6 1 1.1z"/></g><path id="패스_101" class="st10" d="m17.9 8.8 1.6 14.5c0 .5-.3.5-.3.5l-5-.1H14V26H9.7v1H6.9v.6H4.4v.8H2.2v1.3L0 30v3.8h15.2v-3.7h29.2l-.2-13s0-.4.4-.4l16.6 1.2.2-.4c-5.8-1.8-28.2-8.7-43.5-8.7z"/></g></g></g></svg>